{
    "asset" : {
        "generator" : "Khronos glTF Blender I/O v1.6.16",
        "version" : "2.0"
    },
    "scene" : 0,
    "scenes" : [
        {
            "name" : "Scene",
            "nodes" : [
                0
            ]
        }
    ],
    "nodes" : [
        {
            "mesh" : 0,
            "name" : "Plane"
        }
    ],
    "meshes" : [
        {
            "name" : "Plane",
            "primitives" : [
                {
                    "attributes" : {
                        "POSITION" : 0,
                        "NORMAL" : 1,
                        "TEXCOORD_0" : 2
                    },
                    "indices" : 3
                }
            ]
        }
    ],
    "accessors" : [
        {
            "bufferView" : 0,
            "componentType" : 5126,
            "count" : 1415,
            "max" : [
                1.482972502708435,
                0.8163672089576721,
                1.482972502708435
            ],
            "min" : [
                -1.482972502708435,
                -0.9494372606277466,
                -1.482972502708435
            ],
            "type" : "VEC3"
        },
        {
            "bufferView" : 1,
            "componentType" : 5126,
            "count" : 1415,
            "type" : "VEC3"
        },
        {
            "bufferView" : 2,
            "componentType" : 5126,
            "count" : 1415,
            "type" : "VEC2"
        },
        {
            "bufferView" : 3,
            "componentType" : 5123,
            "count" : 2646,
            "type" : "SCALAR"
        }
    ],
    "bufferViews" : [
        {
            "buffer" : 0,
            "byteLength" : 16980,
            "byteOffset" : 0
        },
        {
            "buffer" : 0,
            "byteLength" : 16980,
            "byteOffset" : 16980
        },
        {
            "buffer" : 0,
            "byteLength" : 11320,
            "byteOffset" : 33960
        },
        {
            "buffer" : 0,
            "byteLength" : 5292,
            "byteOffset" : 45280
        }
    ],
    "buffers" : [
        {
            "byteLength" : 50572,
            "uri" : "data:application/octet-stream;base64,"
        }
    ]
}
